<?xml version="1.0" encoding="UTF-8"?>
<svg xmlns="http://www.w3.org/2000/svg" width="1200" height="400" viewBox="0 0 1200 400" fill="none">
  <defs>
    <linearGradient id="bg" x1="600" y1="0" x2="600" y2="400" gradientUnits="userSpaceOnUse">
      <stop stop-color="#F7F8F9"/>
      <stop offset="1" stop-color="#FFFFFF"/>
    </linearGradient>
    <filter id="cardShadow" x="-8%" y="-8%" width="116%" height="116%">
      <feDropShadow dx="0" dy="4" stdDeviation="5" flood-color="#172544" flood-opacity="0.12"/>
    </filter>
  </defs>

  <rect width="1200" height="400" rx="16" fill="url(#bg)"/>
  <rect x="1" y="1" width="1198" height="398" rx="15" stroke="#35425D" stroke-opacity="0.15"/>

  <!-- Biena logo -->
  <g transform="translate(515, 20) scale(1.2)">
    <path fill="#172544" fill-rule="evenodd" clip-rule="evenodd" d="M167.319 32.9644L161.554 34.2272C158.47 34.9038 156.459 36.7073 156.459 39.0075C156.459 41.8032 158.605 43.6071 161.867 43.6071C164.995 43.6071 167.319 41.4878 167.319 38.5563V32.9644ZM161.911 46.3129C157.666 46.3129 153.778 43.7874 153.778 39.0526C153.778 34.5426 157.532 32.3331 161.599 31.4763L167.319 30.2589V28.1392C167.319 25.1176 165.621 23.0884 162.001 23.0884C160.303 23.0884 159.185 23.6295 158.247 24.3512C157.353 25.0726 157.13 25.7942 156.191 25.7942C155.521 25.7942 154.895 25.2531 154.895 24.4863C154.895 23.9903 155.208 23.5394 155.521 23.1786C157.13 21.3299 159.543 20.3829 162.001 20.3829C167.051 20.3829 170 23.6295 170 28.1392V38.5563C170 43.2012 166.246 46.3129 161.911 46.3129ZM147.522 45.8619C146.852 45.8619 146.182 45.411 146.182 44.509V29.1763C146.182 25.7942 143.5 23.0884 140.149 23.0884C136.797 23.0884 134.116 25.7942 134.116 29.1763V44.509C134.116 45.411 133.445 45.8619 132.775 45.8619C132.105 45.8619 131.434 45.411 131.434 44.509V29.1763C131.434 24.3061 135.322 20.3829 140.149 20.3829C144.975 20.3829 148.863 24.3061 148.863 29.1763V44.509C148.863 45.411 148.192 45.8619 147.522 45.8619ZM123.391 29.1762C123.391 25.7944 120.71 23.0883 117.358 23.0883C114.006 23.0883 111.325 25.7944 111.325 29.1762V30.9802H123.391V29.1762ZM124.731 33.6863H111.325V37.5191C111.325 40.766 114.364 43.607 117.805 43.607C119.503 43.607 121.559 43.1112 122.855 41.4426C123.167 41.0367 123.614 40.8562 123.972 40.8562C124.687 40.8562 125.357 41.4426 125.357 42.1639C125.357 42.4344 125.268 42.7504 125.089 43.0208C123.391 45.2754 120.531 46.3128 117.805 46.3128C113.112 46.3128 108.644 42.4798 108.644 37.5191V29.1762C108.644 24.306 112.531 20.3828 117.358 20.3828C122.184 20.3828 126.072 24.306 126.072 29.1762V32.3331C126.072 33.0547 125.446 33.6863 124.731 33.6863ZM101.717 45.8619C101.047 45.8619 100.376 45.411 100.376 44.509V22.1864C100.376 21.2848 101.047 20.8337 101.717 20.8337C102.387 20.8337 103.058 21.2848 103.058 22.1864V44.509C103.058 45.411 102.387 45.8619 101.717 45.8619ZM101.717 11.2282C102.7 11.2282 103.505 12.04 103.505 13.0321C103.505 14.0241 102.7 14.8357 101.717 14.8357C100.734 14.8357 99.9294 14.0241 99.9294 13.0321C99.9294 12.04 100.734 11.2282 101.717 11.2282ZM85.719 28.9509H77.7644V43.1564H85.719C89.6068 43.1564 92.7797 39.9542 92.7797 36.0761C92.7797 32.1528 89.6068 28.9509 85.719 28.9509ZM92.1095 19.8414C92.1095 16.279 89.2495 13.3929 85.719 13.3929H77.7644V26.2454H85.719C89.2495 26.2454 92.0649 23.3591 92.0649 19.7964L92.1095 19.8414ZM85.719 45.8619H76.4237C75.7086 45.8619 75.0833 45.2306 75.0833 44.5089V12.04C75.0833 11.3186 75.7086 10.6871 76.4237 10.6871H85.719C90.7242 10.6871 94.7909 14.7906 94.7909 19.7964C94.7909 23.0884 93.0926 25.9294 90.5455 27.553C93.4502 29.2214 95.4611 32.4234 95.4611 36.0309C95.4611 41.4876 91.0817 45.8619 85.719 45.8619ZM16.412 5.52784L19.3625 13.7089C19.3948 13.8064 19.4245 13.9189 19.4529 14.0261C19.6064 14.957 19.069 15.8296 18.2416 15.9761C18.207 15.9822 18.1724 15.987 18.1379 15.9905L18.0347 15.997C17.2804 16.0161 16.5901 15.4121 16.4438 14.56C16.4221 14.4489 16.412 14.339 16.412 14.2279V5.52784ZM40.2488 5.52784V14.2279C40.2488 14.339 40.242 14.4489 40.2219 14.56C40.084 15.3733 39.451 15.9607 38.7398 15.9958L38.6377 15.997C38.5694 15.9953 38.5005 15.9884 38.4315 15.9761C37.5976 15.8296 37.0545 14.957 37.2189 14.0261C37.2378 13.9189 37.2646 13.8107 37.3025 13.7089L40.2488 5.52784ZM18.7378 3.90954L18.837 3.91389C19.3652 3.95748 19.8697 4.32616 20.1049 4.89482C20.1493 4.99251 20.177 5.09397 20.1992 5.18758L21.8967 12.8647L17.7001 6.22983C17.6442 6.14573 17.5984 6.05764 17.5559 5.95994C17.2353 5.17532 17.5419 4.30119 18.2457 4.00861C18.4056 3.94053 18.5721 3.90877 18.7378 3.90954ZM37.9276 3.90954L38.0271 3.91302C38.1597 3.92293 38.2917 3.95414 38.4194 4.00861C39.1266 4.30118 39.4311 5.17532 39.1106 5.95994C39.0687 6.05763 39.0214 6.14564 38.9677 6.22974L34.7696 12.8647L36.4698 5.18758C36.4901 5.09397 36.5198 4.99251 36.5561 4.89499C36.8079 4.29066 37.364 3.91216 37.9276 3.90954ZM20.6129 3.77681L26.73 9.93071C26.8046 10.0065 26.8801 10.0934 26.9428 10.1882C27.4825 10.9566 27.3619 11.9783 26.6714 12.4649C26.451 12.6184 26.1999 12.6996 25.9424 12.7142L25.8318 12.7164C25.3144 12.7078 24.7862 12.4362 24.4436 11.9472C24.3816 11.8576 24.3257 11.7617 24.2779 11.6626L20.6129 3.77681ZM36.0562 3.77681L32.3858 11.6626C32.3405 11.7617 32.288 11.8576 32.2201 11.9472C31.902 12.4013 31.4251 12.6679 30.9453 12.7106L30.8346 12.7164C30.5397 12.7213 30.2481 12.6403 29.9964 12.4649C29.3113 11.9783 29.1839 10.9566 29.7263 10.1882C29.7874 10.0934 29.8589 10.0065 29.9391 9.93071L36.0562 3.77681ZM28.4374 0C30.8622 0.0286361 33.2792 0.973576 35.132 2.83494L28.3326 9.68944L21.5208 2.83494C23.37 0.973576 25.7852 0.0286361 28.21 0H28.4374ZM15.8867 38.6536C16.0334 39.4843 15.3977 40.2934 14.4815 40.4574C14.3616 40.4764 14.2551 40.4898 14.1474 40.4898H5.49667L13.628 37.5235C13.731 37.4801 13.839 37.4571 13.9481 37.4341C14.8749 37.2754 15.7345 37.8162 15.8867 38.6536ZM12.7921 34.9771L6.19461 39.1997C6.10982 39.2498 6.01945 39.2947 5.9279 39.3381C5.74967 39.4123 5.56684 39.4534 5.38734 39.4644L5.2801 39.4675C4.71094 39.4646 4.1919 39.159 3.98172 38.6455C3.68731 37.9409 4.08882 37.0964 4.87172 36.7726C4.96664 36.7347 5.05887 36.7021 5.16056 36.6819L12.7921 34.9771ZM11.2065 29.559L11.3148 29.5649C11.7455 29.6028 12.1417 29.8102 12.392 30.1744C12.8749 30.8681 12.6452 31.8722 11.8807 32.4091C11.787 32.474 11.6927 32.5296 11.5904 32.5757L3.75613 36.2645L9.87523 30.1079C9.95208 30.0374 10.037 29.9615 10.1293 29.8978C10.4628 29.6616 10.8434 29.5511 11.2065 29.559ZM2.81907 21.6652L9.63494 28.4966L2.81907 35.3497C-0.939689 31.5715 -0.939689 25.4475 2.81907 21.6652ZM3.75613 20.7329L11.5904 24.4216C11.6927 24.465 11.787 24.5219 11.8807 24.5923C12.6452 25.1304 12.8749 26.1291 12.392 26.8216C12.1303 27.2008 11.7092 27.4106 11.2559 27.4353L11.1419 27.4377C10.7986 27.4329 10.4431 27.3233 10.1293 27.1021C10.037 27.0357 9.95208 26.9627 9.87523 26.8854L3.75613 20.7329ZM5.28012 17.5322L5.38736 17.5353C5.56686 17.5465 5.74969 17.5879 5.92793 17.6621C6.01948 17.6985 6.10984 17.746 6.19463 17.8002L12.7921 22.0231L5.16056 20.3168C5.05887 20.291 4.96649 20.2652 4.87157 20.2232C4.08884 19.8953 3.68733 19.0619 3.98174 18.3572C4.19192 17.8398 4.71096 17.5345 5.28012 17.5322ZM14.1474 16.5114C14.2551 16.5114 14.3616 16.5181 14.4815 16.5345C15.3977 16.6984 16.0334 17.5114 15.8867 18.3423C15.7598 19.0368 15.1418 19.5337 14.4029 19.5874L14.2912 19.5921C14.1787 19.5935 14.0639 19.5846 13.9481 19.5646C13.839 19.5403 13.731 19.5158 13.628 19.4725L5.49667 16.5114H14.1474ZM28.3326 47.309L35.1441 54.1651C33.3538 55.9683 31.0311 56.9115 28.6837 56.9947L28.4565 57H28.2292C25.8051 56.9714 23.3895 56.0264 21.541 54.1651L28.3326 47.309ZM30.7958 44.2779L30.9017 44.2804C31.3963 44.3091 31.8924 44.5799 32.2201 45.05C32.288 45.1409 32.3405 45.2412 32.3858 45.3401L36.0521 53.2232L29.9391 47.0639C29.8589 46.9879 29.7874 46.9039 29.7263 46.8118C29.1839 46.0367 29.3113 45.023 29.995 44.5366C30.2363 44.365 30.5138 44.2814 30.7958 44.2779ZM25.8704 44.2779L25.976 44.283C26.2216 44.3036 26.4606 44.3864 26.6714 44.5366C27.3619 45.023 27.4811 46.0367 26.9388 46.8118C26.8801 46.9039 26.8046 46.9879 26.73 47.0639L20.6129 53.2232L24.2779 45.3401C24.3257 45.2412 24.3816 45.1409 24.4436 45.05C24.7947 44.5463 25.3408 44.2714 25.8704 44.2779ZM21.8966 44.1285L20.1991 51.8097C20.177 51.9059 20.1493 52.0021 20.1048 52.0998C19.8697 52.6704 19.3652 53.0403 18.837 53.085L18.7377 53.0896C18.572 53.0907 18.4055 53.0592 18.2456 52.9915C17.5418 52.696 17.2354 51.8247 17.5558 51.044C17.5984 50.9451 17.6441 50.8515 17.7001 50.769L21.8966 44.1285ZM34.7697 44.1285L38.9676 50.769C39.0213 50.8515 39.0686 50.9451 39.1105 51.044C39.4311 51.8247 39.1266 52.696 38.4193 52.9915C38.2917 53.0457 38.1597 53.0766 38.0271 53.0863L37.9276 53.0896C37.3639 53.0859 36.8079 52.7061 36.5561 52.0998C36.5198 52.0021 36.4901 51.9059 36.4698 51.8097L34.7697 44.1285ZM18.0347 40.9989L18.1379 41.0053C18.1724 41.0088 18.207 41.0136 18.2416 41.0198C19.069 41.1674 19.6064 42.0348 19.4529 42.9698C19.4245 43.0756 19.3948 43.1868 19.3625 43.2884L16.412 51.4681V42.7693C16.412 42.6623 16.4221 42.5498 16.439 42.4373C16.5897 41.5826 17.2804 40.9797 18.0347 40.9989ZM38.6346 40.9994L38.7371 41.0008C39.4509 41.037 40.084 41.6214 40.2219 42.4373C40.242 42.5498 40.2488 42.6623 40.2488 42.7693V51.4682L37.3025 43.2911C37.2646 43.1868 37.2378 43.0755 37.2189 42.9698C37.0545 42.0348 37.5975 41.1675 38.4274 41.0198C38.4968 41.0078 38.566 41.001 38.6346 40.9994ZM42.7143 37.4341C42.8314 37.4571 42.9393 37.4801 43.0376 37.5235L51.1683 40.4898H42.5216C42.4111 40.4898 42.3007 40.4764 42.1848 40.4574C41.2661 40.2934 40.6354 39.4843 40.781 38.6536C40.928 37.8162 41.7914 37.2754 42.7143 37.4341ZM43.8729 34.9676L51.509 36.6819C51.6075 36.7022 51.6963 36.7348 51.7961 36.7727C52.5775 37.0965 52.9735 37.9408 52.688 38.6455C52.4822 39.127 52.0158 39.4238 51.4914 39.4617L51.3859 39.4657C51.1734 39.4669 50.9537 39.4259 50.74 39.3379C50.6415 39.2947 50.5538 39.2499 50.4703 39.1998L43.8729 34.9676ZM45.5252 29.5609L45.6399 29.5664C45.9468 29.5915 46.2582 29.7002 46.5365 29.8978C46.6307 29.9615 46.7142 30.0375 46.7951 30.1079L52.9088 36.2645L45.0707 32.5771C44.9736 32.5297 44.8766 32.4741 44.7862 32.409C44.0224 31.8723 43.788 30.8681 44.2731 30.1742C44.5581 29.7659 45.0294 29.554 45.5252 29.5609ZM53.8466 21.6448L54.0175 21.8208C57.6058 25.6098 57.5489 31.6094 53.8466 35.3308L47.0321 28.4965L53.8466 21.6448ZM52.9088 20.7329L46.7924 26.8854C46.7142 26.9627 46.6307 27.0357 46.5365 27.1021C46.2582 27.2987 45.9468 27.4072 45.6399 27.4322L45.5252 27.4377C45.0294 27.4445 44.5581 27.2324 44.2731 26.8216C43.788 26.1291 44.0224 25.1304 44.7862 24.5923C44.8766 24.5219 44.9736 24.465 45.0707 24.4216L52.9088 20.7329ZM51.3858 17.5322L51.4914 17.5361C52.0158 17.5735 52.4821 17.8721 52.6879 18.3572C52.9735 19.0618 52.5774 19.8954 51.7961 20.2233C51.6962 20.2626 51.6075 20.2911 51.5091 20.3167L43.873 22.023L50.4704 17.8001C50.5539 17.7459 50.6413 17.6986 50.7398 17.662C50.9537 17.573 51.1733 17.5313 51.3858 17.5322ZM51.1683 16.5114L43.0376 19.4725C42.9393 19.5158 42.8314 19.5403 42.7143 19.5646C42.6374 19.5779 42.561 19.5863 42.4853 19.5901L42.3723 19.5921C41.5868 19.5829 40.9096 19.0715 40.781 18.3423C40.6354 17.5114 41.2661 16.6984 42.1848 16.5345C42.3007 16.5181 42.4111 16.5114 42.5216 16.5114H51.1683ZM15.0985 5.51827L15.108 15.201H5.47657C5.47185 9.84798 9.78108 5.51827 15.0985 5.51827ZM15.1079 41.8017V51.4899C9.79449 51.4899 5.48728 47.1588 5.48863 41.8113L15.1079 41.8017ZM51.1898 41.8018C51.1952 47.1494 46.8866 51.4831 41.5719 51.4736L41.5557 41.8018H51.1898ZM41.5557 5.51149L41.7767 5.51357C46.9933 5.62255 51.1802 9.91003 51.1763 15.1834L41.5557 15.201V5.51149Z"/>
  </g>

  <line x1="420" y1="100" x2="780" y2="100" stroke="#3BD7C6" stroke-width="1.5" stroke-opacity="0.5"/>
  <text x="600" y="118" text-anchor="middle" fill="#3BD7C6" font-family="Arial, Helvetica, sans-serif" font-size="11" font-weight="700" letter-spacing="5">360 OFFER</text>
  <text x="600" y="138" text-anchor="middle" fill="#172544" font-family="Arial, Helvetica, sans-serif" font-size="14">From idea to perfect solution - all under one roof</text>

  <!-- Card template positions: x = 24, 244, 464, 684, 904 ; width 200 except last 168 -->
  <g transform="translate(24, 160)" filter="url(#cardShadow)">
    <rect width="200" height="210" rx="12" fill="#FFFFFF" stroke="#172544" stroke-width="2"/>
    <circle cx="24" cy="24" r="14" fill="#3BD7C6"/>
    <text x="24" y="29" text-anchor="middle" fill="#172544" font-family="Arial, sans-serif" font-size="11" font-weight="700">01</text>
    <text x="100" y="70" text-anchor="middle" fill="#172544" font-family="Arial, sans-serif" font-size="22" font-weight="700">R&amp;D</text>
    <line x1="36" y1="84" x2="164" y2="84" stroke="#3BD7C6" stroke-width="1.5" stroke-opacity="0.45"/>
    <text x="100" y="112" text-anchor="middle" fill="#35425D" font-family="Arial, sans-serif" font-size="12">Selection</text>
    <text x="100" y="132" text-anchor="middle" fill="#35425D" font-family="Arial, sans-serif" font-size="12">Studies</text>
    <text x="100" y="152" text-anchor="middle" fill="#35425D" font-family="Arial, sans-serif" font-size="12">Formulation</text>
  </g>

  <polygon points="236,265 252,265 244,277" fill="#3BD7C6"/>

  <g transform="translate(264, 160)" filter="url(#cardShadow)">
    <rect width="200" height="210" rx="12" fill="#FFFFFF" stroke="#172544" stroke-width="2"/>
    <circle cx="24" cy="24" r="14" fill="#3BD7C6"/>
    <text x="24" y="29" text-anchor="middle" fill="#172544" font-family="Arial, sans-serif" font-size="11" font-weight="700">02</text>
    <text x="100" y="62" text-anchor="middle" fill="#172544" font-family="Arial, sans-serif" font-size="17" font-weight="700">Strain</text>
    <text x="100" y="82" text-anchor="middle" fill="#172544" font-family="Arial, sans-serif" font-size="17" font-weight="700">Production</text>
    <line x1="36" y1="96" x2="164" y2="96" stroke="#3BD7C6" stroke-width="1.5" stroke-opacity="0.45"/>
    <text x="100" y="122" text-anchor="middle" fill="#35425D" font-family="Arial, sans-serif" font-size="12">cGMP</text>
    <text x="100" y="142" text-anchor="middle" fill="#35425D" font-family="Arial, sans-serif" font-size="12">Viability</text>
    <text x="100" y="162" text-anchor="middle" fill="#35425D" font-family="Arial, sans-serif" font-size="12">Stability</text>
  </g>

  <polygon points="476,265 492,265 484,277" fill="#3BD7C6"/>

  <g transform="translate(504, 160)" filter="url(#cardShadow)">
    <rect width="200" height="210" rx="12" fill="#FFFFFF" stroke="#172544" stroke-width="2"/>
    <circle cx="24" cy="24" r="14" fill="#3BD7C6"/>
    <text x="24" y="29" text-anchor="middle" fill="#172544" font-family="Arial, sans-serif" font-size="11" font-weight="700">03</text>
    <text x="100" y="68" text-anchor="middle" fill="#172544" font-family="Arial, sans-serif" font-size="18" font-weight="700">Manufacturing</text>
    <line x1="36" y1="84" x2="164" y2="84" stroke="#3BD7C6" stroke-width="1.5" stroke-opacity="0.45"/>
    <text x="100" y="112" text-anchor="middle" fill="#35425D" font-family="Arial, sans-serif" font-size="12">Dosage forms</text>
    <text x="100" y="132" text-anchor="middle" fill="#35425D" font-family="Arial, sans-serif" font-size="12">Flavors</text>
    <text x="100" y="152" text-anchor="middle" fill="#35425D" font-family="Arial, sans-serif" font-size="12">Concentrations</text>
  </g>

  <polygon points="716,265 732,265 724,277" fill="#3BD7C6"/>

  <g transform="translate(744, 160)" filter="url(#cardShadow)">
    <rect width="200" height="210" rx="12" fill="#FFFFFF" stroke="#172544" stroke-width="2"/>
    <circle cx="24" cy="24" r="14" fill="#3BD7C6"/>
    <text x="24" y="29" text-anchor="middle" fill="#172544" font-family="Arial, sans-serif" font-size="11" font-weight="700">04</text>
    <text x="100" y="62" text-anchor="middle" fill="#172544" font-family="Arial, sans-serif" font-size="17" font-weight="700">Quality</text>
    <text x="100" y="82" text-anchor="middle" fill="#172544" font-family="Arial, sans-serif" font-size="17" font-weight="700">Control</text>
    <line x1="36" y1="96" x2="164" y2="96" stroke="#3BD7C6" stroke-width="1.5" stroke-opacity="0.45"/>
    <text x="100" y="122" text-anchor="middle" fill="#35425D" font-family="Arial, sans-serif" font-size="12">Regulatory</text>
    <text x="100" y="142" text-anchor="middle" fill="#35425D" font-family="Arial, sans-serif" font-size="12">Auditing</text>
    <text x="100" y="162" text-anchor="middle" fill="#35425D" font-family="Arial, sans-serif" font-size="12">Compliance</text>
  </g>

  <polygon points="956,265 972,265 964,277" fill="#3BD7C6"/>

  <g transform="translate(984, 160)" filter="url(#cardShadow)">
    <rect width="192" height="210" rx="12" fill="#172544" stroke="#172544" stroke-width="2"/>
    <circle cx="24" cy="24" r="14" fill="#3BD7C6"/>
    <text x="24" y="29" text-anchor="middle" fill="#172544" font-family="Arial, sans-serif" font-size="11" font-weight="700">05</text>
    <text x="96" y="62" text-anchor="middle" fill="#FFFFFF" font-family="Arial, sans-serif" font-size="17" font-weight="700">Supply</text>
    <text x="96" y="82" text-anchor="middle" fill="#FFFFFF" font-family="Arial, sans-serif" font-size="17" font-weight="700">Chain</text>
    <line x1="28" y1="96" x2="164" y2="96" stroke="#3BD7C6" stroke-width="1.5" stroke-opacity="0.55"/>
    <text x="96" y="124" text-anchor="middle" fill="#3BD7C6" font-family="Arial, sans-serif" font-size="12">Real-time</text>
    <text x="96" y="144" text-anchor="middle" fill="#3BD7C6" font-family="Arial, sans-serif" font-size="12">traceability</text>
  </g>
</svg>
