<svg xmlns="http://www.w3.org/2000/svg" xmlns:xlink="http://www.w3.org/1999/xlink" id="Calque_1" x="0px" y="0px" viewBox="-428 -167 725.7 730" style="enable-background:new -428 -167 725.7 730;" xml:space="preserve"><style type="text/css">	.st0{fill:#FFFFFF;enable-background:new    ;}</style><path class="st0" d="M-217.8-96.2L-180,8.6c0.4,1.2,0.8,2.7,1.2,4.1c2,11.9-4.9,23.1-15.5,25c-0.4,0.1-0.9,0.1-1.3,0.2l-1.3,0.1  c-9.7,0.2-18.5-7.5-20.4-18.4c-0.3-1.4-0.4-2.8-0.4-4.3L-217.8-96.2L-217.8-96.2z M87.5-96.2V15.2c0,1.4-0.1,2.8-0.3,4.3  c-1.8,10.4-9.9,17.9-19,18.4h-1.3c-0.9,0-1.8-0.1-2.6-0.3c-10.7-1.9-17.6-13.1-15.5-25c0.2-1.4,0.6-2.8,1.1-4.1L87.5-96.2z   M-188-116.9l1.3,0.1c6.8,0.6,13.2,5.3,16.2,12.6c0.6,1.3,0.9,2.6,1.2,3.7l21.7,98.3l-53.7-85c-0.7-1.1-1.3-2.2-1.8-3.5  c-4.1-10-0.2-21.2,8.8-25C-192.2-116.5-190.1-116.9-188-116.9z M57.8-116.9h1.3c1.7,0.1,3.4,0.5,5,1.2c9.1,3.7,13,14.9,8.9,25  c-0.5,1.3-1.1,2.4-1.8,3.5l-53.8,85l21.8-98.3c0.3-1.2,0.6-2.5,1.1-3.7C43.4-112,50.6-116.9,57.8-116.9z M-164-118.6l78.3,78.8  c1,1,1.9,2.1,2.7,3.3c6.9,9.8,5.4,22.9-3.5,29.2c-2.8,2-6,3-9.3,3.2h-1.4c-6.6-0.1-13.4-3.6-17.8-9.9c-0.8-1.1-1.5-2.4-2.1-3.6  L-164-118.6z M33.8-118.6l-47,101c-0.6,1.3-1.3,2.5-2.1,3.6c-4.1,5.8-10.2,9.2-16.3,9.8L-33-4.1c-3.8,0.1-7.5-1-10.7-3.2  c-8.8-6.2-10.4-19.3-3.5-29.2c0.8-1.2,1.7-2.3,2.7-3.3L33.8-118.6z M-63.8-167c31.1,0.4,62,12.5,85.7,36.3l-87,87.8l-87.2-87.8  c23.7-23.8,54.6-35.9,85.7-36.3L-63.8-167L-63.8-167z M-224.5,328c1.9,10.6-6.3,21-18,23.1c-1.5,0.2-2.9,0.4-4.3,0.4h-110.8  l104.1-38c1.3-0.6,2.7-0.9,4.1-1.1C-237.5,310.4-226.5,317.3-224.5,328z M-264.1,281l-84.5,54.1c-1.1,0.6-2.2,1.2-3.4,1.8  c-2.3,1-4.6,1.5-6.9,1.6h-1.4c-7.3,0-13.9-4-16.6-10.5c-3.8-9,1.4-19.8,11.4-24c1.2-0.5,2.4-0.9,3.7-1.2L-264.1,281z M-284.4,211.6  l1.4,0.1c5.5,0.5,10.6,3.1,13.8,7.8c6.2,8.9,3.2,21.7-6.5,28.6c-1.2,0.8-2.4,1.5-3.7,2.1l-100.3,47.2l78.4-78.8  c1-0.9,2.1-1.9,3.3-2.7C-294,212.9-289.1,211.5-284.4,211.6z M-391.9,110.5l87.3,87.5l-87.3,87.8C-440,237.3-440,158.9-391.9,110.5z   M-379.9,98.5l100.3,47.2c1.3,0.6,2.5,1.3,3.7,2.2c9.8,6.9,12.7,19.7,6.5,28.6c-3.4,4.9-8.7,7.5-14.6,7.9h-1.5  c-4.4-0.1-8.9-1.5-13-4.3c-1.2-0.9-2.3-1.8-3.3-2.8L-379.9,98.5z M-360.3,57.5h1.4c2.3,0.1,4.6,0.7,6.9,1.6c1.2,0.5,2.3,1.1,3.4,1.8  l84.5,54.1l-97.7-21.9c-1.3-0.3-2.5-0.7-3.7-1.2c-10-4.2-15.2-14.9-11.4-23.9C-374.3,61.5-367.6,57.6-360.3,57.5z M-246.8,44.5  c1.4,0,2.7,0.1,4.3,0.3c11.7,2.1,19.9,12.5,18,23.2c-1.6,8.9-9.5,15.3-19,15.9l-1.4,0.1c-1.4,0-2.9-0.1-4.4-0.4  c-1.4-0.3-2.8-0.6-4.1-1.2l-104.1-37.9H-246.8z M-65.1,438.9l87.2,87.8c-22.9,23.1-52.7,35.2-82.7,36.2l-2.9,0.1h-2.9  c-31-0.4-62-12.5-85.7-36.3L-65.1,438.9z M-33.6,400.1h1.4c6.3,0.4,12.7,3.8,16.9,9.9c0.9,1.2,1.5,2.4,2.1,3.7l47,101l-78.3-78.9  c-1-1-1.9-2-2.7-3.2c-6.9-9.9-5.3-22.9,3.4-29.1C-40.7,401.2-37.2,400.1-33.6,400.1z M-96.6,400.1l1.4,0.1c3.1,0.3,6.2,1.3,8.9,3.2  c8.8,6.2,10.4,19.2,3.4,29.1c-0.8,1.2-1.7,2.3-2.7,3.2l-78.3,78.9l46.9-101c0.6-1.3,1.3-2.6,2.1-3.7  C-110.4,403.5-103.4,400-96.6,400.1z M-147.5,398.2l-21.7,98.4c-0.3,1.2-0.6,2.5-1.2,3.7c-3,7.3-9.5,12-16.2,12.6l-1.3,0.1  c-2.1,0-4.3-0.4-6.3-1.3c-9-3.8-12.9-14.9-8.8-24.9c0.5-1.3,1.1-2.5,1.8-3.5L-147.5,398.2z M17.3,398.2l53.8,85  c0.7,1.1,1.3,2.3,1.8,3.5c4.1,10,0.2,21.2-8.9,24.9c-1.6,0.7-3.3,1.1-5,1.2h-1.3c-7.2,0-14.3-4.9-17.6-12.7  c-0.5-1.3-0.8-2.5-1.1-3.7L17.3,398.2z M-197,358.1l1.3,0.1c0.4,0,0.9,0.1,1.3,0.2c10.6,1.9,17.5,13,15.5,25  c-0.4,1.4-0.7,2.8-1.2,4.1l-37.8,104.8V380.7c0-1.4,0.1-2.8,0.3-4.3C-215.5,365.5-206.7,357.8-197,358.1z M66.8,358.1h1.3  c9.1,0.5,17.2,7.9,19,18.4c0.3,1.4,0.3,2.9,0.3,4.3v111.4L49.7,387.5c-0.5-1.3-0.8-2.8-1.1-4.1c-2.1-12,4.8-23.1,15.5-25  C65.1,358.2,65.9,358.1,66.8,358.1z M119.1,312.4c1.5,0.3,2.9,0.6,4.1,1.1l104.1,38H116.6c-1.4,0-2.8-0.2-4.3-0.4  c-11.8-2.1-19.8-12.5-18-23.1C96.2,317.3,107.3,310.4,119.1,312.4z M133.9,280.8l97.8,22c1.3,0.3,2.4,0.7,3.7,1.2  c10,4.1,15.1,15,11.4,24c-2.6,6.2-8.6,10-15.3,10.5l-1.4,0.1c-2.7,0-5.5-0.5-8.3-1.6c-1.3-0.6-2.4-1.1-3.5-1.8L133.9,280.8z   M155.1,211.6l1.5,0.1c3.9,0.3,7.9,1.7,11.5,4.2c1.2,0.8,2.3,1.8,3.3,2.7l78.3,78.8l-100.4-47.2c-1.2-0.6-2.5-1.3-3.6-2.2  c-9.8-6.9-12.8-19.7-6.6-28.6C142.7,214.2,148.7,211.5,155.1,211.6z M261.6,110.2l2.2,2.3c46,48.5,45.2,125.4-2.2,173L174.3,198  L261.6,110.2z M249.6,98.5l-78.3,78.8c-1,1-2.1,1.9-3.3,2.8c-3.6,2.5-7.6,3.9-11.5,4.2l-1.5,0.1c-6.3,0.1-12.4-2.6-16-7.9  c-6.2-8.9-3.2-21.7,6.6-28.6c1.2-0.9,2.4-1.6,3.6-2.2L249.6,98.5z M230.1,57.5h1.4c6.7,0.5,12.7,4.3,15.3,10.5  c3.7,9-1.4,19.7-11.4,23.9c-1.3,0.5-2.4,0.9-3.7,1.2L133.9,115l84.5-54.1c1.1-0.7,2.2-1.3,3.5-1.8C224.6,58.1,227.4,57.5,230.1,57.5  z M227.3,44.5L123.2,82.4c-1.3,0.6-2.6,0.9-4.1,1.2c-1,0.2-2,0.3-2.9,0.3h-1.4c-10.1-0.1-18.7-6.7-20.4-16  c-1.9-10.6,6.2-21.1,18-23.2c1.5-0.2,2.9-0.3,4.3-0.3L227.3,44.5L227.3,44.5z M-234.6-96.3l0.1,124h-123.3  C-357.9-40.9-302.7-96.3-234.6-96.3z M-234.5,368.4v124.1c-68,0-123.2-55.5-123.2-124L-234.5,368.4z M227.6,368.4  c0.1,68.5-55.1,124-123.2,123.9l-0.2-123.9H227.6z M104.2-96.4h2.8C173.9-95,227.5-40.1,227.5,27.5l-123.2,0.2V-96.4H104.2z"></path></svg>